<svg width="428" height="338" viewBox="0 0 428 338" fill="none" xmlns="http://www.w3.org/2000/svg">
<path d="M214 280C280.826 280 335 248.884 335 210.5C335 172.116 280.826 141 214 141C147.174 141 93 172.116 93 210.5C93 248.884 147.174 280 214 280Z" fill="#BB4EEF" fill-opacity="0.15"/>
<path d="M334.5 210.5C334.5 229.436 321.133 246.676 299.311 259.21C277.503 271.736 247.342 279.5 214 279.5C180.658 279.5 150.497 271.736 128.689 259.21C106.867 246.676 93.5 229.436 93.5 210.5C93.5 191.564 106.867 174.324 128.689 161.79C150.497 149.264 180.658 141.5 214 141.5C247.342 141.5 277.503 149.264 299.311 161.79C321.133 174.324 334.5 191.564 334.5 210.5Z" stroke="white" stroke-opacity="0.35"/>
<path d="M358.5 214.5C358.5 237.303 342.446 258.043 316.281 273.11C290.13 288.17 253.969 297.5 214 297.5C174.031 297.5 137.87 288.17 111.719 273.11C85.5545 258.043 69.5 237.303 69.5 214.5C69.5 191.697 85.5545 170.957 111.719 155.89C137.87 140.83 174.031 131.5 214 131.5C253.969 131.5 290.13 140.83 316.281 155.89C342.446 170.957 358.5 191.697 358.5 214.5Z" stroke="white" stroke-opacity="0.2"/>
<path d="M387.5 214.5C387.5 241.998 368.199 266.988 336.786 285.131C305.388 303.267 261.977 314.5 214 314.5C166.023 314.5 122.613 303.267 91.2135 285.131C59.8013 266.988 40.5 241.998 40.5 214.5C40.5 187.002 59.8013 162.012 91.2135 143.869C122.613 125.733 166.023 114.5 214 114.5C261.977 114.5 305.388 125.733 336.786 143.869C368.199 162.012 387.5 187.002 387.5 214.5Z" stroke="white" stroke-opacity="0.1"/>
<path d="M427.5 214.5C427.5 248.349 403.722 279.089 365.071 301.395C326.433 323.693 273.023 337.5 214 337.5C154.977 337.5 101.567 323.693 62.9291 301.395C24.2782 279.089 0.5 248.349 0.5 214.5C0.5 180.651 24.2782 149.911 62.9291 127.605C101.567 105.307 154.977 91.5 214 91.5C273.023 91.5 326.433 105.307 365.071 127.605C403.722 149.911 427.5 180.651 427.5 214.5Z" stroke="white" stroke-opacity="0.05"/>
<path d="M214.163 256.872C267.716 256.872 311.129 231.794 311.129 200.857C311.129 169.921 267.716 144.842 214.163 144.842C160.61 144.842 117.197 169.921 117.197 200.857C117.197 231.794 160.61 256.872 214.163 256.872Z" fill="#BCD5FF"/>
<path d="M319.126 200.258V176.851H311.128C305.93 169.649 298.533 163.047 288.336 157.246C247.351 133.639 180.775 133.639 139.789 157.246C129.793 163.047 122.195 169.649 116.997 176.851H109V200.258C109 215.862 119.196 231.266 139.789 243.069C180.775 266.676 247.351 266.676 288.336 243.069C308.929 231.266 319.126 215.862 319.126 200.258Z" fill="url(#paint0_linear_1262_14013)"/>
<path d="M214.163 237.467C272.132 237.467 319.125 210.328 319.125 176.851C319.125 143.373 272.132 116.234 214.163 116.234C156.193 116.234 109.2 143.373 109.2 176.851C109.2 210.328 156.193 237.467 214.163 237.467Z" fill="#8A40E2"/>
<path d="M311.129 174.85V143.041H303.731C298.933 136.439 291.935 130.238 282.739 125.036C244.952 103.23 183.374 103.23 145.587 125.036C136.39 130.438 129.393 136.639 124.595 143.041H117.197V174.85C117.197 189.254 126.594 203.458 145.587 214.461C183.374 236.267 244.952 236.267 282.739 214.461C301.732 203.458 311.129 189.254 311.129 174.85Z" fill="#2C1379"/>
<g opacity="0.51">
<path d="M311.129 167.648V135.839H303.731C298.933 129.238 291.935 123.036 282.739 117.834C244.952 96.0285 183.374 96.0285 145.587 117.834C136.39 123.236 129.393 129.438 124.595 135.839H117.197V167.648C117.197 182.052 126.594 196.256 145.587 207.259C183.374 229.065 244.952 229.065 282.739 207.259C301.732 196.256 311.129 181.852 311.129 167.648Z" fill="#5C21A7"/>
</g>
<path d="M214.163 199.057C267.716 199.057 311.129 173.978 311.129 143.042C311.129 112.105 267.716 87.0264 214.163 87.0264C160.61 87.0264 117.197 112.105 117.197 143.042C117.197 173.978 160.61 199.057 214.163 199.057Z" fill="#BCD5FF"/>
<g opacity="0.51">
<path d="M280.939 181.252C260.147 207.659 231.357 218.862 210.764 223.463C236.755 224.064 262.946 218.662 282.739 207.059C301.732 196.056 311.129 181.852 311.129 167.448V154.645C301.332 160.246 290.936 168.649 280.939 181.252Z" fill="#6625B8"/>
</g>
<path d="M319.126 142.441V119.235H311.128C305.93 112.033 298.533 105.431 288.336 99.6299C247.351 76.0234 180.775 76.0234 139.789 99.6299C129.793 105.431 122.195 112.033 116.997 119.235H109V142.642C109 158.246 119.196 173.65 139.789 185.453C180.775 209.06 247.351 209.06 288.336 185.453C308.929 173.65 319.126 158.046 319.126 142.441Z" fill="url(#paint1_linear_1262_14013)"/>
<path d="M214.163 179.852C272.132 179.852 319.125 152.713 319.125 119.235C319.125 85.7576 272.132 58.6187 214.163 58.6187C156.193 58.6187 109.2 85.7576 109.2 119.235C109.2 152.713 156.193 179.852 214.163 179.852Z" fill="#8A40E2"/>
<path d="M311.129 117.234V85.2258H303.731C298.933 78.624 291.935 72.4223 282.739 67.2209C244.952 45.415 183.374 45.415 145.587 67.2209C136.39 72.6224 129.393 78.8241 124.595 85.2258H117.197V117.034C117.197 131.438 126.594 145.642 145.587 156.645C183.374 178.451 244.952 178.451 282.739 156.645C301.732 145.842 311.129 131.438 311.129 117.234Z" fill="#2C1379"/>
<g opacity="0.51">
<path d="M311.129 108.232V76.4238H303.731C298.933 69.822 291.935 63.6203 282.739 58.4189C244.952 36.613 183.374 36.613 145.587 58.4189C136.39 63.8204 129.393 70.022 124.595 76.4238H117.197V108.232C117.197 122.636 126.594 136.84 145.587 147.843C183.374 169.649 244.952 169.649 282.739 147.843C301.732 136.84 311.129 122.636 311.129 108.232Z" fill="#8B2ED4"/>
</g>
<path d="M214.163 141.241C267.716 141.241 311.129 116.162 311.129 85.2259C311.129 54.2896 267.716 29.2107 214.163 29.2107C160.61 29.2107 117.197 54.2896 117.197 85.2259C117.197 116.162 160.61 141.241 214.163 141.241Z" fill="#BCD5FF"/>
<path d="M319.126 84.8259V61.4195H311.128C305.93 54.2176 298.533 47.6158 288.336 41.8142C247.351 18.2078 180.775 18.2078 139.789 41.8142C129.793 47.6158 122.195 54.2176 116.997 61.4195H109V84.8259C109 100.43 119.196 115.834 139.789 127.638C180.775 151.244 247.351 151.244 288.336 127.638C308.929 115.834 319.126 100.43 319.126 84.8259Z" fill="url(#paint2_linear_1262_14013)"/>
<path d="M214.163 122.036C272.132 122.036 319.125 94.8968 319.125 61.4192C319.125 27.9417 272.132 0.802734 214.163 0.802734C156.193 0.802734 109.2 27.9417 109.2 61.4192C109.2 94.8968 156.193 122.036 214.163 122.036Z" fill="#BCD5FF"/>
<path d="M214.163 122.036C272.132 122.036 319.125 94.8968 319.125 61.4192C319.125 27.9417 272.132 0.802734 214.163 0.802734C156.193 0.802734 109.2 27.9417 109.2 61.4192C109.2 94.8968 156.193 122.036 214.163 122.036Z" fill="#BCD5FF"/>
<g opacity="0.51">
<path d="M280.939 120.636C258.147 149.643 225.559 160.246 205.166 164.047C232.956 165.448 261.546 160.246 282.739 147.843C301.732 136.84 311.128 122.636 311.128 108.232V94.0283C301.332 99.4298 290.936 107.832 280.939 120.636Z" fill="#6F2AC8"/>
</g>
<path d="M319.126 84.8259V61.4195H311.128C305.93 54.2176 298.533 47.6158 288.336 41.8142C247.351 18.2078 180.775 18.2078 139.789 41.8142C129.793 47.6158 122.195 54.2176 116.997 61.4195H109V84.8259C109 100.43 119.196 115.834 139.789 127.638C180.775 151.244 247.351 151.244 288.336 127.638C308.929 115.834 319.126 100.43 319.126 84.8259Z" fill="url(#paint3_linear_1262_14013)"/>
<path d="M214.163 122.036C272.132 122.036 319.125 94.8968 319.125 61.4192C319.125 27.9417 272.132 0.802734 214.163 0.802734C156.193 0.802734 109.2 27.9417 109.2 61.4192C109.2 94.8968 156.193 122.036 214.163 122.036Z" fill="#BCD5FF"/>
<path d="M214.163 122.036C272.132 122.036 319.125 94.8968 319.125 61.4192C319.125 27.9417 272.132 0.802734 214.163 0.802734C156.193 0.802734 109.2 27.9417 109.2 61.4192C109.2 94.8968 156.193 122.036 214.163 122.036Z" fill="url(#paint4_radial_1262_14013)"/>
<path d="M288.936 102.631C247.951 126.237 181.374 126.237 140.389 102.631C115.198 88.0266 105.601 68.0212 111.199 49.2161C104.402 68.6213 113.798 89.427 139.789 104.431C180.775 128.037 247.351 128.037 288.337 104.431C304.331 95.2286 313.927 83.8255 317.526 72.0223C313.528 83.2253 304.131 93.8282 288.936 102.631Z" fill="white"/>
<path d="M288.936 160.246C247.951 183.853 181.374 183.853 140.389 160.246C115.198 145.642 105.601 125.637 111.199 106.832C104.402 126.237 113.798 147.043 139.789 162.047C180.775 185.653 247.351 185.653 288.337 162.047C304.331 152.844 313.927 141.441 317.526 129.638C313.528 140.841 304.131 151.644 288.936 160.246Z" fill="white"/>
<path d="M288.936 218.062C247.951 241.668 181.374 241.668 140.389 218.062C115.198 203.458 105.601 183.452 111.199 164.647C104.402 184.052 113.798 204.858 139.789 219.862C180.775 243.469 247.351 243.469 288.337 219.862C304.331 210.66 313.927 199.257 317.526 187.453C313.528 198.656 304.131 209.259 288.936 218.062Z" fill="white"/>
<path d="M277.669 56.4662V42.3409H272.728C269.67 38.1033 264.964 34.1012 259.082 30.5698C234.379 16.2091 194.147 16.2091 169.443 30.5698C163.326 34.1012 158.856 38.1033 155.797 42.3409H150.856V56.4662C150.856 65.883 156.974 75.2999 169.443 82.3625C194.147 96.7232 234.379 96.7232 259.082 82.3625C271.317 75.2999 277.669 65.883 277.669 56.4662Z" fill="url(#paint5_linear_1262_14013)"/>
<path d="M259.082 68.237C234.378 82.5977 194.147 82.5977 169.443 68.237C144.739 53.8763 144.739 30.805 169.443 16.4443C194.147 2.08365 234.378 2.08365 259.082 16.4443C283.786 30.805 283.786 53.8763 259.082 68.237Z" fill="#BCD5FF"/>
<path d="M259.082 68.237C234.378 82.5977 194.147 82.5977 169.443 68.237C144.739 53.8763 144.739 30.805 169.443 16.4443C194.147 2.08365 234.378 2.08365 259.082 16.4443C283.786 30.805 283.786 53.8763 259.082 68.237Z" fill="url(#paint6_radial_1262_14013)"/>
<path d="M259.082 65.4123C234.379 79.773 194.147 79.773 169.443 65.4123C157.679 58.5851 151.562 49.8745 150.856 40.9285C150.151 50.8162 156.268 60.7039 169.443 68.2373C194.147 82.598 234.379 82.598 259.082 68.2373C272.023 60.7039 278.375 50.8162 277.669 40.9285C276.963 49.8745 270.846 58.5851 259.082 65.4123Z" fill="white"/>
<g filter="url(#filter0_d_1262_14013)">
<path d="M230.781 47.2763L237.108 50.4248C237.108 50.4248 238.191 50.7928 239.308 50.1483C240.424 49.5038 239.787 48.878 239.787 48.878L234.333 45.2255C234.324 45.2385 234.314 45.2516 234.304 45.265C234.06 45.5817 233.624 45.977 232.853 46.4218C232.083 46.8666 231.398 47.1187 230.85 47.2592C230.827 47.2651 230.804 47.2708 230.781 47.2763Z" fill="white"/>
<path d="M219.214 41.619L229.777 46.7077C229.777 46.7077 230.653 46.6984 231.993 45.925C233.332 45.1516 233.349 44.6454 233.349 44.6454L224.535 38.5472C224.294 39.0412 223.749 39.754 222.526 40.4596C221.304 41.1653 220.07 41.48 219.214 41.619Z" fill="white"/>
<path d="M209.336 36.3319C209.289 36.4711 209.314 36.6167 209.415 36.7498L210.828 38.6052C211.054 38.9012 211.451 39.1398 211.955 39.281L217.607 40.8671C217.949 40.9628 218.328 41.0125 218.706 40.9619C219.369 40.8732 220.511 40.6298 221.666 39.9628C222.821 39.2957 223.243 38.6365 223.396 38.2541C223.484 38.0359 223.398 37.8166 223.232 37.6196L220.485 34.356C220.24 34.0654 219.827 33.8358 219.314 33.7056L216.101 32.8897C215.87 32.8312 215.618 32.8172 215.377 32.8439C215.286 33.7094 214.655 34.5701 213.49 35.2426C212.325 35.9152 210.835 36.2794 209.336 36.3319Z" fill="white"/>
<path d="M205.615 34.8207C205.1 34.5234 204.276 34.4136 203.562 34.5455C201.857 34.8606 199.949 34.6426 198.633 33.8832C196.732 32.7856 196.79 30.9724 198.763 29.8334C199.108 29.6345 199.488 29.4693 199.891 29.3379C201.211 28.9078 202.518 28.1528 203.263 27.391C203.491 27.1583 203.777 26.9388 204.121 26.7399C206.094 25.6008 209.235 25.5673 211.136 26.6649C212.451 27.4243 212.829 28.5262 212.283 29.5104C212.055 29.9226 212.245 30.3987 212.76 30.696C214.661 31.7936 214.603 33.6067 212.63 34.7458C210.657 35.8848 207.517 35.9183 205.615 34.8207Z" fill="white"/>
<path d="M191.579 48.8871L209.35 38.6268C209.837 39.8361 211.244 39.9756 212.451 40.3143L200.371 52.6054C199.595 53.3875 198.083 53.8311 196.566 53.7218L194.166 53.5491C192.775 53.449 191.631 52.9013 191.21 52.1343L190.632 51.0814C190.215 50.3206 190.58 49.473 191.579 48.8871Z" fill="white"/>
<path d="M208.802 37.9495L188.026 49.414C186.847 50.0425 185.224 50.2516 183.845 49.8407L179.76 48.6293C179.433 48.5318 179.141 48.4079 178.889 48.2636C178.097 47.809 177.708 47.1513 177.881 46.4751L178.41 44.414C178.608 43.6414 179.511 42.9754 180.77 42.6728C183.976 41.8739 203.478 37.2345 206.83 36.4372C207.118 36.3688 207.431 36.4329 207.583 36.5835C207.692 36.6907 207.823 36.8192 207.958 36.9464C208.349 37.3177 208.802 37.9495 208.802 37.9495Z" fill="white"/>
<path d="M237.123 22.5918L219.352 32.8522C221.447 33.1334 221.688 33.9458 222.275 34.6427L243.564 27.6683C244.918 27.2202 245.687 26.3471 245.497 25.4711L245.198 24.0859C245.025 23.2828 244.076 22.6219 242.748 22.3789L240.924 22.0454C239.606 21.8044 238.138 22.0155 237.123 22.5918Z" fill="white"/>
<path d="M218.179 32.5357L238.036 20.5408C239.125 19.8598 239.487 18.923 238.775 18.1267L236.677 15.7683C236.508 15.5793 236.293 15.4108 236.043 15.2656C235.256 14.8084 234.117 14.5834 232.946 14.6836L229.376 14.989C228.037 15.1034 226.884 15.6244 226.36 16.3512C224.976 18.2022 216.94 29.4618 215.56 31.3972C215.441 31.5633 215.552 31.744 215.813 31.8321C215.999 31.8947 216.221 31.9707 216.442 32.0482C217.085 32.2744 218.179 32.5357 218.179 32.5357Z" fill="white"/>
</g>
<defs>
<filter id="filter0_d_1262_14013" x="168.865" y="11.7876" width="103.02" height="62.8596" filterUnits="userSpaceOnUse" color-interpolation-filters="sRGB">
<feFlood flood-opacity="0" result="BackgroundImageFix"/>
<feColorMatrix in="SourceAlpha" type="matrix" values="0 0 0 0 0 0 0 0 0 0 0 0 0 0 0 0 0 0 127 0" result="hardAlpha"/>
<feOffset dy="4"/>
<feGaussianBlur stdDeviation="2"/>
<feComposite in2="hardAlpha" operator="out"/>
<feColorMatrix type="matrix" values="0 0 0 0 0 0 0 0 0 0 0 0 0 0 0 0 0 0 0.1 0"/>
<feBlend mode="normal" in2="BackgroundImageFix" result="effect1_dropShadow_1262_14013"/>
<feBlend mode="normal" in="SourceGraphic" in2="effect1_dropShadow_1262_14013" result="shape"/>
</filter>
<linearGradient id="paint0_linear_1262_14013" x1="109.1" y1="200.256" x2="319.183" y2="200.256" gradientUnits="userSpaceOnUse">
<stop stop-color="#AE30D6"/>
<stop offset="1" stop-color="#552FD5"/>
</linearGradient>
<linearGradient id="paint1_linear_1262_14013" x1="109.1" y1="142.531" x2="319.183" y2="142.531" gradientUnits="userSpaceOnUse">
<stop stop-color="#B02FD5"/>
<stop offset="1" stop-color="#512ED4"/>
</linearGradient>
<linearGradient id="paint2_linear_1262_14013" x1="109.1" y1="84.8065" x2="319.183" y2="84.8065" gradientUnits="userSpaceOnUse">
<stop stop-color="#5778FF"/>
<stop offset="0.1779" stop-color="#5C7DFF"/>
<stop offset="0.3876" stop-color="#6A8AFF"/>
<stop offset="0.6134" stop-color="#82A0FF"/>
<stop offset="0.849" stop-color="#A3BEFF"/>
<stop offset="1" stop-color="#BCD5FF"/>
</linearGradient>
<linearGradient id="paint3_linear_1262_14013" x1="109.1" y1="84.8065" x2="319.183" y2="84.8065" gradientUnits="userSpaceOnUse">
<stop stop-color="#B12ED4"/>
<stop offset="1" stop-color="#4E2ED3"/>
</linearGradient>
<radialGradient id="paint4_radial_1262_14013" cx="0" cy="0" r="1" gradientUnits="userSpaceOnUse" gradientTransform="translate(127.672 24.4762) scale(225.375 225.516)">
<stop stop-color="#BE3FE1"/>
<stop offset="1" stop-color="#623FE1"/>
</radialGradient>
<linearGradient id="paint5_linear_1262_14013" x1="150.655" y1="56.4605" x2="277.585" y2="56.4605" gradientUnits="userSpaceOnUse">
<stop stop-color="#9220B2"/>
<stop offset="1" stop-color="#4B25D3"/>
</linearGradient>
<radialGradient id="paint6_radial_1262_14013" cx="0" cy="0" r="1" gradientUnits="userSpaceOnUse" gradientTransform="translate(147.851 13.7276) scale(200.288 200.414)">
<stop stop-color="#C959F3"/>
<stop offset="1" stop-color="#7E3EFF"/>
</radialGradient>
</defs>
</svg>